<svg width="66" height="64" viewBox="0 0 66 64" fill="none" xmlns="http://www.w3.org/2000/svg">
<g clip-path="url(#clip0_8515_27903)">
<path d="M39.0621 64C38.276 64 37.5057 63.7957 36.8297 63.4184L33.7798 61.7048C33.1667 61.3589 32.4121 61.3589 31.799 61.7048L28.7491 63.4184C26.7054 64.566 24.1429 63.9843 22.8066 62.0664L20.7943 59.2051C20.3856 58.6392 19.7096 58.309 19.0022 58.3405L15.5121 58.5606C13.1854 58.7178 11.1102 57.0671 10.7487 54.7561L10.1827 51.3132C10.0726 50.6058 9.60102 50.0241 8.94074 49.7568L5.71794 48.4206C3.54845 47.5402 2.40082 45.1663 3.0611 42.9182L4.05152 39.5697C4.2559 38.8937 4.08297 38.1548 3.61134 37.636L1.26892 35.042C-0.30318 33.3127 -0.30318 30.6716 1.26892 28.9423L3.61134 26.3483C4.08297 25.8296 4.2559 25.0907 4.05152 24.4147L3.0611 21.0661C2.40082 18.818 3.54845 16.4441 5.71794 15.5638L8.95646 14.2432C9.61674 13.976 10.0726 13.3943 10.1984 12.6868L10.7644 9.24395C11.126 6.93297 13.2011 5.28227 15.5278 5.43948L19.0179 5.65957C19.7253 5.70674 20.4013 5.3766 20.8101 4.79492L22.8066 1.93371C24.1429 0.0157522 26.7211 -0.581644 28.7649 0.581706L31.8147 2.29529C32.4278 2.64115 33.1824 2.64115 33.8113 2.29529L36.8612 0.581706C38.9049 -0.565923 41.4674 0.0157522 42.8037 1.93371L44.816 4.79492C45.2247 5.3766 45.9007 5.69102 46.6081 5.65957L50.0982 5.43948C52.4249 5.29799 54.4843 6.93297 54.8616 9.24395L55.4276 12.6868C55.5376 13.3786 56.0093 13.976 56.6696 14.2432L59.9081 15.5481C62.0776 16.4284 63.2252 18.8023 62.5649 21.0504L61.5745 24.3989C61.3701 25.075 61.543 25.8138 62.0147 26.3326L64.3571 28.9266C65.9292 30.6559 65.9292 33.297 64.3571 35.0263L62.0147 37.6203C61.543 38.1391 61.3701 38.8779 61.5745 39.554L62.5649 42.9025C63.2409 45.1506 62.0933 47.5245 59.9081 48.4048L56.6696 49.7254C56.0093 49.9927 55.5534 50.5743 55.4276 51.2818L54.8616 54.7247C54.4843 57.0356 52.4249 58.6706 50.0982 58.5291L46.6081 58.309C45.9007 58.2619 45.2247 58.592 44.816 59.1737L42.8194 62.0349C41.939 63.2769 40.5399 64 39.0621 64Z" fill="#E40B1C" fill-opacity="0.4"/>
<path d="M32.7913 54.7719C20.246 54.7719 10.0273 44.5533 10.0273 32.008C10.0273 19.4626 20.246 9.24402 32.7913 9.24402C45.3366 9.24402 55.5552 19.4626 55.5552 32.008C55.5552 44.5533 45.3523 54.7719 32.7913 54.7719Z" fill="white"/>
<path d="M41.8895 45.7794C41.6851 45.7794 41.4808 45.7323 41.3078 45.6379L32.7871 41.1575L24.2663 45.6379C23.6532 45.9681 22.8986 45.7323 22.5685 45.1034C22.4427 44.8519 22.3955 44.5846 22.4427 44.3017L24.0619 34.8219L17.1762 28.1091C16.6731 27.6217 16.6731 26.8357 17.1604 26.3326C17.3491 26.1282 17.6006 26.0025 17.8836 25.971L27.4105 24.5876L31.6709 15.9568C32.0953 15.0921 33.4945 15.0921 33.9347 15.9568L38.1951 24.5876L47.722 25.971C48.4137 26.0654 48.8853 26.7099 48.791 27.4016C48.7438 27.6689 48.6181 27.9204 48.4294 28.1248L41.5436 34.8376L43.1629 44.3174C43.2729 45.0091 42.817 45.6537 42.141 45.7637C42.031 45.7794 41.9681 45.7794 41.8895 45.7794Z" fill="#E40B1C" fill-opacity="0.4"/>
<path d="M41.8895 45.7794C41.6851 45.7794 41.4808 45.7323 41.3078 45.6379L32.7871 41.1575L24.2663 45.6379C23.6532 45.9681 22.8986 45.7323 22.5685 45.1034C22.4427 44.8519 22.3955 44.5846 22.4427 44.3017L24.0619 34.8219L17.1762 28.1091C16.6731 27.6217 16.6731 26.8357 17.1604 26.3326C17.3491 26.1282 17.6006 26.0025 17.8836 25.971L27.4105 24.5876L31.6709 15.9568C32.0953 15.0921 33.4945 15.0921 33.9347 15.9568L38.1951 24.5876L47.722 25.971C48.4137 26.0654 48.8853 26.7099 48.791 27.4016C48.7438 27.6689 48.6181 27.9204 48.4294 28.1248L41.5436 34.8376L43.1629 44.3174C43.2729 45.0091 42.817 45.6537 42.141 45.7637C42.031 45.7794 41.9681 45.7794 41.8895 45.7794ZM20.7763 28.0934L26.31 33.4856C26.6087 33.7686 26.7345 34.1931 26.6716 34.6018L25.3668 42.2265L32.2054 38.6264C32.567 38.4377 33.0072 38.4377 33.3687 38.6264L40.2074 42.2265L38.9025 34.6018C38.8396 34.1931 38.9654 33.7843 39.2641 33.4856L44.7979 28.0934L37.1418 26.9772C36.733 26.9143 36.3714 26.6627 36.1985 26.2854L32.7871 19.3682L29.3599 26.3012C29.1713 26.6785 28.8254 26.93 28.4166 26.9929L20.7763 28.0934Z" fill="#C62626"/>
<path d="M32.7913 54.7719C20.246 54.7719 10.0273 44.5533 10.0273 32.008C10.0273 19.4626 20.246 9.24402 32.7913 9.24402C45.3366 9.24402 55.5552 19.4626 55.5552 32.008C55.5552 44.5533 45.3523 54.7719 32.7913 54.7719ZM32.7913 11.7594C21.6137 11.7594 12.5427 20.8304 12.5427 32.008C12.5427 43.1856 21.6137 52.2565 32.7913 52.2565C43.9689 52.2565 53.0399 43.1856 53.0399 32.008C53.0241 20.8304 43.9689 11.7594 32.7913 11.7594Z" fill="#C62626"/>
<path d="M39.0621 64C38.276 64 37.5057 63.7957 36.8297 63.4184L33.7798 61.7048C33.1667 61.3589 32.4121 61.3589 31.799 61.7048L28.7491 63.4184C26.7054 64.566 24.1429 63.9843 22.8066 62.0664L20.7943 59.2051C20.3856 58.6392 19.7096 58.309 19.0022 58.3405L15.5121 58.5606C13.1854 58.7178 11.1102 57.0671 10.7487 54.7561L10.1827 51.3132C10.0726 50.6058 9.60102 50.0241 8.94074 49.7568L5.71794 48.4206C3.54845 47.5402 2.40082 45.1663 3.0611 42.9182L4.05152 39.5697C4.2559 38.8937 4.08297 38.1548 3.61134 37.636L1.26892 35.042C-0.30318 33.3127 -0.30318 30.6716 1.26892 28.9423L3.61134 26.3483C4.08297 25.8296 4.2559 25.0907 4.05152 24.4147L3.0611 21.0661C2.40082 18.818 3.54845 16.4441 5.71794 15.5638L8.95646 14.2432C9.61674 13.976 10.0726 13.3943 10.1984 12.6868L10.7644 9.24395C11.126 6.93297 13.2011 5.28227 15.5278 5.43948L19.0179 5.65957C19.7253 5.70674 20.4013 5.3766 20.8101 4.79492L22.8066 1.93371C24.1429 0.0157522 26.7211 -0.581644 28.7649 0.581706L31.8147 2.29529C32.4278 2.64115 33.1824 2.64115 33.8113 2.29529L36.8612 0.581706C38.9049 -0.565923 41.4674 0.0157522 42.8037 1.93371L44.816 4.79492C45.2247 5.3766 45.9007 5.69102 46.6081 5.65957L50.0982 5.43948C52.4249 5.29799 54.4843 6.93297 54.8616 9.24395L55.4276 12.6868C55.5376 13.3786 56.0093 13.976 56.6696 14.2432L59.9081 15.5481C62.0776 16.4284 63.2252 18.8023 62.5649 21.0504L61.5745 24.3989C61.3701 25.075 61.543 25.8138 62.0147 26.3326L64.3571 28.9266C65.9292 30.6559 65.9292 33.297 64.3571 35.0263L62.0147 37.6203C61.543 38.1391 61.3701 38.8779 61.5745 39.554L62.5649 42.9025C63.2409 45.1506 62.0933 47.5245 59.9081 48.4048L56.6696 49.7254C56.0093 49.9927 55.5534 50.5743 55.4276 51.2818L54.8616 54.7247C54.4843 57.0356 52.4249 58.6706 50.0982 58.5291L46.6081 58.309C45.9007 58.2619 45.2247 58.592 44.816 59.1737L42.8194 62.0349C41.939 63.2769 40.5399 64 39.0621 64ZM32.7894 58.9379C33.5755 58.9379 34.3301 59.1423 35.0218 59.5196L38.0717 61.2331C38.9835 61.7519 40.1311 61.4847 40.7285 60.62L42.7251 57.7588C43.6369 56.4697 45.1461 55.7465 46.7339 55.8251L50.224 56.0452C51.2615 56.1081 52.1891 55.3849 52.3463 54.3474L52.9122 50.9045C53.1795 49.3481 54.2171 48.0275 55.6949 47.4301L58.9334 46.1096C59.9081 45.7166 60.4111 44.6633 60.1124 43.6571L59.122 40.3086C58.6818 38.7836 59.0591 37.1486 60.1124 35.9696L62.4549 33.3756C63.1623 32.6053 63.1623 31.4262 62.4549 30.6559L60.1124 28.0619C59.0591 26.8829 58.6818 25.2479 59.122 23.7229L60.1124 20.3744C60.4111 19.3682 59.8923 18.3149 58.9334 17.9219L55.6949 16.6171C54.2328 16.0197 53.1795 14.6991 52.9122 13.1427L52.3463 9.69986C52.1734 8.678 51.2615 7.93911 50.224 8.002L46.7339 8.17493C45.1618 8.26925 43.6369 7.54609 42.7251 6.24125L40.7128 3.38004C40.1154 2.5311 38.9678 2.26385 38.0559 2.76692L35.0061 4.4805C33.6226 5.25083 31.9405 5.25083 30.5571 4.4805L27.5072 2.76692C26.5954 2.24813 25.4477 2.51538 24.8503 3.38004L22.8538 6.24125C21.942 7.53037 20.4328 8.26925 18.8449 8.17493L15.3549 7.95483C14.3173 7.89195 13.4055 8.63083 13.2326 9.6527L12.6666 13.0956C12.3994 14.652 11.3618 15.9725 9.884 16.5699L6.64548 17.8905C5.67078 18.2835 5.16771 19.3525 5.46641 20.3429L6.45683 23.6915C6.89702 25.2164 6.51971 26.8514 5.46641 28.0305L3.12399 30.6244C2.41654 31.3948 2.41654 32.5738 3.12399 33.3442L5.46641 35.9381C6.51971 37.1172 6.89702 38.7522 6.45683 40.2771L5.46641 43.6257C5.16771 44.6318 5.6865 45.6851 6.64548 46.0781L9.884 47.383C11.346 47.9804 12.3994 49.3009 12.6666 50.8573L13.2326 54.3002C13.4055 55.3221 14.3173 56.061 15.3549 55.9981L18.8449 55.778C20.417 55.6836 21.942 56.4068 22.8538 57.7117L24.8661 60.5729C25.4635 61.4375 26.6111 61.6891 27.5229 61.186L30.5728 59.4724C31.2488 59.1265 32.0191 58.9222 32.7894 58.9379Z" fill="#C62626"/>
</g>
<defs>
<clipPath id="clip0_8515_27903">
<rect width="65.4149" height="64" fill="white" transform="translate(0.0898438)"/>
</clipPath>
</defs>
</svg>
