<svg width="78" height="64" viewBox="0 0 78 64" fill="none" xmlns="http://www.w3.org/2000/svg">
<g clip-path="url(#clip0_8514_24580)">
<path d="M11.3164 30.9677C15.6748 36.626 20.3391 41.9785 25.3092 47.1016C32.038 53.8303 43.2782 65.5293 47.2543 61.5532C48.0954 60.7121 48.4777 59.6416 48.4012 58.4182C51.1539 58.6476 53.6008 56.6595 53.9066 53.9068V53.8303C56.5828 53.9068 58.8003 51.8423 58.9532 49.1661C58.9532 49.1661 62.2411 48.9367 63.4646 47.7133C65.2232 45.9546 65.0703 43.8901 64.0763 42.8961C60.2531 39.2258 49.0894 28.2151 49.0894 28.2151C43.6605 32.5735 39.7608 28.4444 39.7608 28.4444C39.7608 28.4444 31.9616 38.3082 27.5267 32.4205C23.0918 26.5329 47.0249 11.3931 47.0249 11.3931" stroke="#C62626" stroke-width="3.05854" stroke-miterlimit="10"/>
<path d="M48.4004 58.4182L36.625 46.6428" stroke="#C62626" stroke-width="3.05854" stroke-miterlimit="10"/>
<path d="M53.9044 53.9068L41.5938 41.5962" stroke="#C62626" stroke-width="3.05854" stroke-miterlimit="10"/>
<path d="M58.9518 49.2426L46.4883 36.779" stroke="#C62626" stroke-width="3.05854" stroke-miterlimit="10"/>
<path d="M62.3945 41.3668C64.2297 39.5317 67.8999 34.638 67.8999 30.7383" stroke="#C62626" stroke-width="3.05854" stroke-miterlimit="10"/>
<path d="M19.3456 40.4492C17.2811 42.5137 13.305 44.8841 17.5869 49.1661L29.0565 60.6356C33.1091 64.6882 37.1616 60.6356 38.385 59.4122" stroke="#C62626" stroke-width="3.05854" stroke-miterlimit="10"/>
<path d="M18.8867 50.4659L23.7804 45.5723" stroke="#C62626" stroke-width="3.05854" stroke-miterlimit="10"/>
<path d="M23.9336 55.5126L28.8273 50.6189" stroke="#C62626" stroke-width="3.05854" stroke-miterlimit="10"/>
<path d="M28.5977 60.1769L33.4913 55.2832" stroke="#C62626" stroke-width="3.05854" stroke-miterlimit="10"/>
<path d="M31.043 10.6285C32.9546 12.0048 37.2365 14.4517 38.8422 16.6691" stroke="#C62626" stroke-width="3.05854" stroke-miterlimit="10"/>
<path d="M43.2766 7.1111L48.0173 2.2939C48.7055 1.60573 49.8525 1.60573 50.6171 2.2939L75.009 26.6858C75.6972 27.374 75.6972 28.5209 75.009 29.2855L70.2682 34.0263C69.5801 34.7145 68.4331 34.7145 67.6685 34.0263L43.2766 9.71087C42.512 8.94623 42.512 7.79928 43.2766 7.1111Z" fill="#E40B1C" fill-opacity="0.4" stroke="#C62626" stroke-width="3.05854" stroke-miterlimit="10"/>
<path d="M29.9726 2.06453L34.7134 6.80527C35.4015 7.49344 35.4015 8.6404 34.7134 9.40503L10.3215 33.7969C9.6333 34.4851 8.48635 34.4851 7.72171 33.7969L2.98097 29.0562C2.2928 28.368 2.2928 27.221 2.98097 26.4564L27.3728 2.06453C28.061 1.37636 29.208 1.37636 29.9726 2.06453Z" fill="#E40B1C" fill-opacity="0.4" stroke="#C62626" stroke-width="3.05854" stroke-miterlimit="10"/>
</g>
<defs>
<clipPath id="clip0_8514_24580">
<rect width="76.1577" height="64" fill="white" transform="translate(0.917969)"/>
</clipPath>
</defs>
</svg>
