<svg width="81" height="64" viewBox="0 0 81 64" fill="none" xmlns="http://www.w3.org/2000/svg">
<g clip-path="url(#clip0_8514_24563)">
<path d="M17.5878 43.9209C13.4011 43.9209 9.98338 40.674 9.64161 36.5728L9.38528 33.2405C9.12895 28.8829 12.3758 25.1234 16.7334 24.7816C16.9043 24.7816 17.0752 24.7816 17.3315 24.7816H17.7587C22.1163 24.7816 25.7049 28.2848 25.7049 32.7278C25.7049 32.8987 25.7049 33.0696 25.7049 33.2405L25.4486 36.5728C25.1922 40.7595 21.7745 43.9209 17.5878 43.9209Z" fill="#E40B1C" fill-opacity="0.4"/>
<path d="M17.5877 45.6297C12.5465 45.6297 8.27438 41.6993 7.9326 36.6582L7.76172 33.3259C7.76172 33.0696 7.76172 32.8987 7.76172 32.6424C7.76172 27.3449 12.1193 23.0728 17.3313 23.0728H17.7586C22.7142 23.0728 26.901 26.8322 27.3282 31.7879C27.4136 32.3006 27.4136 32.8133 27.3282 33.3259L27.0718 36.6582C26.9864 37.6835 26.8155 38.6234 26.3883 39.5633C25.6193 41.443 24.3377 42.981 22.7142 44.0917C21.518 44.8607 20.151 45.3734 18.6984 45.5443C18.4421 45.6297 18.0149 45.6297 17.5877 45.6297ZM17.3313 26.4905C17.1605 26.4905 17.075 26.4905 16.9041 26.4905C15.2807 26.5759 13.7427 27.3449 12.632 28.6265C11.5212 29.9082 11.0086 31.4462 11.094 33.155L11.3503 36.4873C11.6067 39.5633 13.9991 41.9557 17.075 42.212C17.2459 42.212 17.4168 42.212 17.5877 42.212C20.8345 42.212 23.4832 39.7341 23.7396 36.4873L23.9105 33.924L23.9959 33.155C23.9959 32.9841 23.9959 32.8987 23.9959 32.7278C23.9959 29.3101 21.1763 26.4905 17.7586 26.4905H17.3313Z" fill="#C62626"/>
<path d="M30.1473 63.4019H1.95111C1.95111 63.4019 1.78023 52.3797 4.68529 49.731C6.65048 47.9367 11.9479 47.1677 17.0745 47.3386C18.6979 47.4241 20.3214 47.5095 21.8593 47.7658C21.5176 48.5348 21.2612 49.3892 21.0049 50.1582C20.2359 53.6614 19.8087 57.1646 19.7233 60.7532H30.1473C30.1473 62.3766 30.1473 63.4019 30.1473 63.4019Z" fill="#E40B1C" fill-opacity="0.4"/>
<path d="M0.243567 64V62.2911C0.158124 56.5664 1.098 49.5601 3.83217 47.2532C5.28471 46.0569 8.10433 45.2025 11.8638 44.6899C13.5727 44.519 15.367 44.4335 17.0758 44.4335C18.0157 44.4335 18.8701 44.4335 19.81 44.519C21.0917 44.6044 22.0315 44.6899 23.1423 44.8607C23.4841 44.9462 23.8258 44.9462 24.1676 45.0316C23.7404 45.4588 23.3986 45.8861 23.1423 46.3133C22.8005 46.9114 22.5442 47.5949 22.3733 48.193C20.8353 48.0221 19.2974 47.9367 17.8448 47.9367H16.9904C14.9398 47.9367 8.18977 48.1076 5.96825 49.9019C4.17395 51.4399 3.74673 58.2753 3.66129 59.6424L3.57585 60.4968H34.9334C34.9334 60.8386 34.9334 61.1804 34.9334 61.5221C34.9334 61.8639 34.9334 62.1202 34.9334 62.3766L34.848 64H0.243567Z" fill="#C62626"/>
<path d="M63.3014 43.9209C59.1147 43.9209 55.6969 40.674 55.4406 36.5728L55.1843 33.2405C54.8425 28.8829 58.1748 25.1234 62.5324 24.7816C62.7033 24.7816 62.8741 24.7816 63.045 24.7816H63.4722C67.8298 24.7816 71.4184 28.2848 71.4184 32.7278C71.4184 32.8987 71.4184 33.0696 71.4184 33.2405L71.1621 36.5728C70.9058 40.7595 67.4026 43.9209 63.3014 43.9209Z" fill="#E40B1C" fill-opacity="0.4"/>
<path d="M63.2147 45.6297C62.873 45.6297 62.6166 45.6297 62.2749 45.5443C60.7369 45.3734 59.1989 44.8607 57.9173 44.0063C55.4394 42.3829 53.9015 39.6487 53.7306 36.7436L53.4742 33.4114C53.3888 32.8133 53.3888 32.3006 53.4742 31.788C53.9869 26.9177 58.0882 23.1582 63.0439 23.1582H63.4711C66.1198 23.1582 68.6831 24.269 70.5628 26.2342C72.3572 28.1993 73.297 30.7626 73.1261 33.4114L72.8698 36.6582C72.528 41.6139 68.2559 45.5443 63.2147 45.6297ZM63.0439 26.4905C61.335 26.4905 59.7116 27.174 58.5154 28.4557C57.3192 29.7373 56.8065 31.4462 56.892 33.155L57.1483 36.4873C57.4046 39.5633 59.797 42.0411 62.873 42.212C63.0439 42.212 63.1293 42.212 63.3002 42.212C66.547 42.212 69.2812 39.6487 69.4521 36.4019L69.623 33.0696C69.623 32.8987 69.623 32.8133 69.623 32.6424C69.623 31.019 68.9394 29.3955 67.8287 28.2848C66.7179 27.0886 65.1799 26.4905 63.4711 26.4905H63.0439Z" fill="#C62626"/>
<path d="M78.851 63.4019H50.3984C50.3984 63.4019 50.3984 62.3766 50.4839 60.8386H60.9934C61.0788 57.25 60.6516 53.6614 59.8826 50.0728C59.7117 49.2184 59.37 48.3639 58.9427 47.6804C60.5662 47.4241 62.275 47.3386 63.8984 47.3386C68.8541 47.3386 74.0662 48.1931 76.2022 49.731C79.4491 52.1234 78.851 63.4019 78.851 63.4019Z" fill="#E40B1C" fill-opacity="0.4"/>
<path d="M45.957 63.9145V60.4968H77.2292V59.6424C77.2292 58.788 77.0583 51.3544 74.9222 49.9019C72.6153 48.3639 67.1469 47.7658 63.2165 47.7658H62.6184C61.2513 47.7658 59.8842 47.8512 58.5172 47.9367C58.2608 47.2531 57.9191 46.5696 57.5773 45.8861C57.321 45.4588 56.9792 45.1171 56.6374 44.8607C56.552 44.7753 56.4665 44.7753 56.3811 44.6898C56.7229 44.6044 57.0646 44.6044 57.4918 44.519C58.6026 44.4335 59.8842 44.2626 61.0804 44.2626C61.5931 44.2626 62.1058 44.2626 62.6184 44.2626C64.6691 44.2626 66.7197 44.3481 68.7703 44.6044C72.4444 45.0316 75.264 45.8861 76.802 46.9114C80.2197 49.3038 80.5615 56.8228 80.5615 59.9842C80.5615 60.4968 80.5615 60.924 80.5615 61.3512C80.5615 61.693 80.5615 61.9493 80.5615 62.2057L80.476 63.8291H45.957V63.9145Z" fill="#C62626"/>
<path d="M40.4024 39.5633C38.9499 39.5633 37.4119 39.307 36.0448 38.7943C32.8834 37.5981 30.4056 35.2911 29.0385 32.2152C28.5258 31.1044 28.184 29.9937 28.0132 28.7975V28.712C28.0132 28.4557 27.9277 28.2848 27.9277 28.0285L27.5859 23.4146C27.5859 23.0728 27.5859 22.8165 27.5859 22.4747C27.5859 15.5538 33.2252 10 40.0606 10H40.7442C44.1619 10 47.4942 11.4525 49.8866 14.0158C52.1935 16.4937 53.3897 19.9114 53.2188 23.3291L52.8771 27.943C52.8771 28.1994 52.7916 28.5411 52.7916 28.7975C52.6207 29.9937 52.279 31.1044 51.8518 32.1297C50.4847 35.2911 47.8359 37.6835 44.5891 38.8797C43.222 39.307 41.7695 39.5633 40.4024 39.5633ZM40.0606 13.4177C39.8897 13.4177 39.6334 13.4177 39.4625 13.4177C37.0701 13.5886 34.8486 14.6994 33.2252 16.4937C31.6018 18.288 30.8328 20.6804 31.0037 23.0728L31.3454 27.6013C31.6018 32.1297 35.2758 35.8038 39.8043 36.0601C39.9752 36.0601 40.2315 36.0601 40.4024 36.0601C45.1872 36.0601 49.1176 32.3006 49.4594 27.6013L49.8011 22.1329C49.7157 19.8259 48.7758 17.6899 47.1524 15.981C45.4435 14.2722 43.1366 13.3323 40.7442 13.3323H40.0606V13.4177Z" fill="#C62626"/>
<path d="M17.418 63.9145V59.6424C17.5034 56.0538 17.9306 52.3797 18.6996 48.8766C18.8705 48.0221 19.1268 47.2532 19.4686 46.3987C19.554 46.2278 19.6395 46.057 19.7249 45.8006C19.9813 45.1171 20.2376 44.519 20.5794 44.0063C20.8357 43.6645 21.092 43.2373 21.3483 42.981C21.6047 42.7247 21.861 42.4683 22.1173 42.212C22.7154 41.7848 23.3135 41.3576 23.9971 41.0158C25.1933 40.5032 26.3895 40.0759 27.5857 39.8196C30.3199 39.2215 33.054 38.7943 35.8737 38.6234C36.9844 38.538 38.0952 38.538 39.2059 38.538C41.0857 38.538 42.9654 38.6234 44.7597 38.7943C47.6648 38.9652 50.5699 39.3924 53.3895 40.0759C54.6711 40.4177 55.8673 40.7595 57.0635 41.2721C57.5762 41.5285 58.0888 41.7848 58.5161 42.0411C58.8578 42.2975 59.1996 42.6392 59.5414 42.981C59.8832 43.3228 60.1395 43.6645 60.3104 43.9209C60.7376 44.519 61.0794 45.1171 61.3357 45.8006L61.592 46.3133C61.9338 47.0823 62.1901 47.9367 62.361 48.7911C63.13 52.2943 63.5572 55.9683 63.4718 59.5569C63.4718 60.2405 63.4718 60.8386 63.4718 61.2658C63.4718 61.6076 63.4718 61.8639 63.4718 62.1202C63.4718 62.2057 63.4718 62.2057 63.4718 62.2911L63.3863 63.8291H17.418V63.9145ZM39.804 42.0411C34.1648 42.0411 29.2945 42.6392 26.4749 43.75C25.7059 44.0063 25.0224 44.3481 24.4243 44.8607C23.9116 45.288 23.5699 45.7152 23.3135 46.2278C22.8863 47.0823 22.5445 47.9367 22.2882 48.7911C21.4338 52.3797 20.9211 55.9683 20.8357 59.6424V60.4968H60.054V59.6424C60.1395 55.9683 59.7123 52.2943 58.7724 48.7057C58.5161 47.7658 58.1743 46.8259 57.6616 45.9715C57.4053 45.5443 57.0635 45.2025 56.7218 44.9462C55.7819 44.3481 54.842 43.9209 53.9021 43.6645C50.5699 42.6392 45.2724 42.0411 39.804 42.0411Z" fill="#C62626"/>
</g>
<defs>
<clipPath id="clip0_8514_24563">
<rect width="80.3232" height="64" fill="white" transform="translate(0.238281)"/>
</clipPath>
</defs>
</svg>
